<svg xmlns="http://www.w3.org/2000/svg" width="30" height="25" fill="none" viewBox="0 0 30 25"><path fill="#FFBC1F" d="M21.3129 0H2.61816C1.17062 0 0 1.16307 0 2.60054V14.483C0 15.9179 1.17062 17.0835 2.61816 17.0835H5.37731V21.5394L9.52105 17.0835H21.3129C22.7579 17.0835 23.931 15.9204 23.931 14.4855V2.60306C23.9285 1.16307 22.7579 0 21.3129 0Z"/><path fill="#CC8F00" d="M9.521 17.081H21.3128C22.7578 17.081 23.931 15.918 23.931 14.483V7.26794C23.931 7.26794 23.1078 13.9392 22.9617 14.5258C22.8157 15.1124 22.5212 15.991 21.129 16.1395C19.7344 16.283 9.521 17.081 9.521 17.081Z"/><path fill="#fff" d="M5.57864 6.84253C6.50758 6.84253 7.26031 7.59525 7.26031 8.5242C7.26031 9.45314 6.50758 10.2059 5.57864 10.2059C4.64969 10.2059 3.89697 9.45314 3.89697 8.5242C3.89697 7.59525 4.64969 6.84253 5.57864 6.84253Z"/><path fill="#fff" d="M11.9629 6.84253C12.8919 6.84253 13.6446 7.59525 13.6446 8.5242C13.6446 9.45314 12.8919 10.2059 11.9629 10.2059C11.034 10.2059 10.2812 9.45314 10.2812 8.5242C10.2812 7.59525 11.034 6.84253 11.9629 6.84253Z"/><path fill="#fff" d="M18.3499 6.84253C19.2788 6.84253 20.0315 7.59525 20.0315 8.5242C20.0315 9.45314 19.2788 10.2059 18.3499 10.2059C17.4209 10.2059 16.6682 9.45314 16.6682 8.5242C16.6682 7.59525 17.4209 6.84253 18.3499 6.84253Z"/><path fill="#FFD791" d="M1.93856 4.97201C2.18527 4.11356 2.82722 2.69874 4.46609 1.77987C4.62721 1.68924 4.57686 1.44505 4.39057 1.43498C3.21239 1.36449 0.83339 1.61623 1.58108 4.95439C1.62136 5.1432 1.88569 5.15831 1.93856 4.97201Z"/><path fill="#FFBC1F" d="M24.2991 11.5498L16.7771 19.0697L20.3012 22.5948L27.8232 15.0749L24.2991 11.5498Z"/><path fill="#C43133" d="M29.3636 10.4601L28.9155 10.012C28.0646 9.16364 26.6901 9.16364 25.8392 10.012L24.301 11.5502L27.8255 15.0746L29.3636 13.5365C30.212 12.6856 30.212 11.3085 29.3636 10.4601Z"/><path fill="#91A0A9" d="M24.3007 11.5491L23.3394 12.5103L26.8635 16.0353L27.8248 15.0742L24.3007 11.5491Z"/><path fill="#C6D2D8" d="M24.6778 11.9267L23.7166 12.8879L26.4864 15.6578L27.4476 14.6965L24.6778 11.9267Z"/><path fill="#F7CEAC" d="M16.779 19.0698L15.2534 23.0676L16.3032 24.1224L20.3035 22.5943L16.779 19.0698Z"/><path fill="#1B1D22" d="M14.9839 23.7649C14.7724 24.3212 15.0544 24.6007 15.6082 24.3892L17.5492 23.6491L15.7266 21.8264L14.9839 23.7649Z"/><path fill="#FFD791" d="M23.3395 12.5095L16.7798 19.0692L17.9547 20.2441L24.5143 13.6844L23.3395 12.5095Z"/><path fill="#CC8F00" d="M25.6878 14.859L19.1282 21.4187L20.303 22.5936L26.8627 16.0339L25.6878 14.859Z"/></svg>